<svg xmlns="http://www.w3.org/2000/svg" width="92.461" height="94.593" viewBox="0 0 92.461 94.593"><defs><style>.a{fill:#d8d9d8;fill-rule:evenodd;}</style></defs><path class="a" d="M30.034,52.193a18.226,18.226,0,0,0,.94,2.154c2.173,3.967,6.361,6.432,13.427,7.117a6.075,6.075,0,0,0-2.387,3.916,7.736,7.736,0,0,1-5.8.468c-2.778-.881-3.842-6.41-8-5.622-.9.169-.721.766.057,1.274a8.223,8.223,0,0,1,3.381,4.055,6.825,6.825,0,0,0,6.893,4.7,20.616,20.616,0,0,0,3.171-.225s.035,4.306.035,5.98c0,1.931-2.592,2.475-2.592,3.4,0,.367.858.4,1.547.4,1.362,0,4.2-1.143,4.2-3.15,0-1.594.026-6.954.026-7.892a3.024,3.024,0,0,1,1.093-2.7s.136,10.941-.26,12.411c-.465,1.725-1.305,1.48-1.305,2.25,0,1.145,3.412.282,4.543-2.232.874-1.953.492-12.691.492-12.691l.932-.019s.052,4.914.02,7.161c-.032,2.327-.19,5.269,1.185,6.656.9.913,3.828,2.513,3.828,1.05,0-.85-1.6-1.548-1.6-3.848V66.223c1.281,0,1.088,3.481,1.088,3.481l.094,6.469a3.294,3.294,0,0,0,2.535,3.341c.994.352,3.121.445,3.221-.142s-2.561-1.463-2.586-3.286c-.015-1.115.049-1.764.049-6.6s-.646-6.625-2.9-8.05C62.3,60.718,66.6,58.99,68.7,54.363a7.3,7.3,0,0,0,.764-2.161,26.292,26.292,0,0,0,.774-6.26c-.012-6.637-3.171-8.985-3.777-10.087.894-5.024-.151-7.31-.635-8.1-1.791-.64-6.227,1.647-8.653,3.257-3.951-1.162-12.307-1.05-15.439.3-5.78-4.161-8.839-3.524-8.839-3.524a12.309,12.309,0,0,0-.522,8.773c-1.9,2.437-3.319,4.162-3.319,8.732A21.625,21.625,0,0,0,30.034,52.193Zm19.2,46.4C23.7,98.593,3,77.418,3,51.3S23.7,4,49.231,4,95.461,25.175,95.461,51.3,74.762,98.593,49.231,98.593Z" transform="translate(-3 -4)"/></svg>