<svg xmlns="http://www.w3.org/2000/svg" width="95" height="94.593" viewBox="0 0 95 94.593"><defs><style>.a{fill:#d8d9d8;fill-rule:evenodd;}</style></defs><path class="a" d="M57.1,32.824a9.564,9.564,0,0,0-6.469,9.619l.1,1.636-1.659-.2A27.007,27.007,0,0,1,33.277,36.13l-2.19-2.171-.564,1.6a9.622,9.622,0,0,0,2.057,9.887c1.327,1.4,1.028,1.6-1.26.768a3.955,3.955,0,0,0-1.56-.367c-.231.235.564,3.273,1.194,4.476A10.7,10.7,0,0,0,35.5,54.6l1.626.768L35.2,55.4c-1.857,0-1.924.033-1.724.736.663,2.171,3.284,4.476,6.2,5.478l2.057.7-1.791,1.069a18.686,18.686,0,0,1-8.892,2.472,9.754,9.754,0,0,0-2.722.266c0,.333,4.049,2.2,6.4,2.939A28.1,28.1,0,0,0,56.5,66.59,29.067,29.067,0,0,0,67.549,53.63a34.337,34.337,0,0,0,2.256-10.017c0-1.537.1-1.737,1.957-3.574a21.805,21.805,0,0,0,2.323-2.571c.332-.635.3-.635-1.393-.068-2.82,1-3.219.869-1.824-.634a9.728,9.728,0,0,0,2.256-3.574c0-.1-.5.066-1.062.367a18.386,18.386,0,0,1-2.92,1.135l-1.791.569-1.626-1.1a13.505,13.505,0,0,0-2.82-1.469A11.381,11.381,0,0,0,57.1,32.824ZM50.5,98.593A47.3,47.3,0,1,1,98,51.3,47.4,47.4,0,0,1,50.5,98.593Z" transform="translate(-3 -4)"/></svg>